<mxfile host="app.diagrams.net" agent="Mozilla/5.0 (Windows NT 10.0; Win64; x64) AppleWebKit/537.36 (KHTML, like Gecko) Chrome/138.0.0.0 Safari/537.36" version="28.0.7">
  <diagram name="Page-1" id="xR8cId3RfPcgNPsCcaaC">
    <mxGraphModel dx="1245" dy="891" grid="1" gridSize="10" guides="1" tooltips="1" connect="1" arrows="1" fold="1" page="0" pageScale="1" pageWidth="850" pageHeight="1100" math="0" shadow="0">
      <root>
        <mxCell id="0" />
        <mxCell id="1" parent="0" />
        <mxCell id="cFwZTcnUXvjwuw0aLBm1-1" value="&lt;b&gt;User Persona&lt;/b&gt;&lt;div&gt;-Hotel Managers&lt;/div&gt;&lt;div&gt;-Users&lt;/div&gt;" style="rounded=0;whiteSpace=wrap;html=1;" vertex="1" parent="1">
          <mxGeometry x="390" y="-40" width="120" height="60" as="geometry" />
        </mxCell>
        <mxCell id="cFwZTcnUXvjwuw0aLBm1-3" value="Functional Requirements&lt;div&gt;&lt;span style=&quot;font-weight: normal;&quot;&gt;-User should be able to search for rooms so filtering options should be there by location, price etc.&lt;/span&gt;&lt;/div&gt;&lt;div&gt;&lt;span style=&quot;font-weight: normal;&quot;&gt;-User should be able to Book rooms and view room bookings&lt;/span&gt;&lt;/div&gt;&lt;div&gt;&lt;span style=&quot;font-weight: normal;&quot;&gt;-User should be able to check bookings&lt;/span&gt;&lt;/div&gt;&lt;div&gt;&lt;span style=&quot;font-weight: normal;&quot;&gt;&lt;br&gt;&lt;/span&gt;&lt;/div&gt;&lt;div&gt;&lt;span style=&quot;font-weight: normal;&quot;&gt;-Hotel Manager should be able to update room price and room images&lt;/span&gt;&lt;/div&gt;&lt;div&gt;&lt;span style=&quot;font-weight: normal;&quot;&gt;-Hotel Manager should be able to manage bookings&lt;/span&gt;&lt;/div&gt;&lt;div&gt;&lt;span style=&quot;font-weight: normal;&quot;&gt;-Hotel Manager should be able to onboard the users&lt;/span&gt;&lt;/div&gt;&lt;div&gt;&lt;span style=&quot;font-weight: normal;&quot;&gt;&lt;br&gt;&lt;/span&gt;&lt;/div&gt;&lt;div&gt;&lt;span style=&quot;font-weight: normal;&quot;&gt;-Hotel Manager should also be able to do analytics&lt;/span&gt;&lt;/div&gt;" style="rounded=0;whiteSpace=wrap;html=1;fontStyle=1" vertex="1" parent="1">
          <mxGeometry x="40" y="-40" width="260" height="320" as="geometry" />
        </mxCell>
        <mxCell id="cFwZTcnUXvjwuw0aLBm1-4" value="&lt;b&gt;Non functional Requirements&lt;/b&gt;&lt;div&gt;-Low Latency&lt;/div&gt;&lt;div&gt;-High Availability&lt;/div&gt;&lt;div&gt;-High consistency:&lt;/div&gt;&lt;div&gt;-Scale: There are 500k hotels&lt;/div&gt;&lt;div&gt;-There are 1000 rooms per hotel&lt;/div&gt;&lt;div&gt;&lt;br&gt;&lt;/div&gt;" style="rounded=0;whiteSpace=wrap;html=1;fontStyle=0" vertex="1" parent="1">
          <mxGeometry x="560" y="-40" width="240" height="130" as="geometry" />
        </mxCell>
      </root>
    </mxGraphModel>
  </diagram>
</mxfile>
